<?xml version="1.0" encoding="utf-8"?>
<svg xmlns="http://www.w3.org/2000/svg" viewBox="0 0 48 48" fill="#fcc05e"><path d="M 23.976562 3.9785156 A 1.50015 1.50015 0 0 0 22.5 5.5 L 22.5 8.5 A 1.50015 1.50015 0 1 0 25.5 8.5 L 25.5 5.5 A 1.50015 1.50015 0 0 0 23.976562 3.9785156 z M 10.902344 9.4042969 A 1.50015 1.50015 0 0 0 9.8574219 11.980469 L 11.978516 14.101562 A 1.5012202 1.5012202 0 0 0 14.101562 11.978516 L 11.980469 9.8574219 A 1.50015 1.50015 0 0 0 10.902344 9.4042969 z M 37.050781 9.4042969 A 1.50015 1.50015 0 0 0 36.019531 9.8574219 L 33.898438 11.978516 A 1.5012202 1.5012202 0 0 0 36.021484 14.101562 L 38.142578 11.980469 A 1.50015 1.50015 0 0 0 37.050781 9.4042969 z M 24 13 A 11 11 0 0 0 24 35 A 11 11 0 0 0 24 13 z M 5.5 22.5 A 1.50015 1.50015 0 1 0 5.5 25.5 L 8.5 25.5 A 1.50015 1.50015 0 1 0 8.5 22.5 L 5.5 22.5 z M 39.5 22.5 A 1.50015 1.50015 0 1 0 39.5 25.5 L 42.5 25.5 A 1.50015 1.50015 0 1 0 42.5 22.5 L 39.5 22.5 z M 13.009766 33.445312 A 1.50015 1.50015 0 0 0 11.978516 33.898438 L 9.8574219 36.019531 A 1.501221 1.501221 0 1 0 11.980469 38.142578 L 14.101562 36.021484 A 1.50015 1.50015 0 0 0 13.009766 33.445312 z M 34.943359 33.445312 A 1.50015 1.50015 0 0 0 33.898438 36.021484 L 36.019531 38.142578 A 1.5012209 1.5012209 0 1 0 38.142578 36.019531 L 36.021484 33.898438 A 1.50015 1.50015 0 0 0 34.943359 33.445312 z M 23.976562 37.978516 A 1.50015 1.50015 0 0 0 22.5 39.5 L 22.5 42.5 A 1.50015 1.50015 0 1 0 25.5 42.5 L 25.5 39.5 A 1.50015 1.50015 0 0 0 23.976562 37.978516 z" fill="#fcc05e"/></svg>
